<?xml version="1.0" encoding="UTF-8" standalone="no"?>
<svg width="57px" height="47px" viewBox="0 0 57 47" version="1.1" xmlns="http://www.w3.org/2000/svg" xmlns:xlink="http://www.w3.org/1999/xlink">
    <!-- Generator: Sketch 3.6.1 (26313) - http://www.bohemiancoding.com/sketch -->
    <title>e619</title>
    <desc>Created with Sketch.</desc>
    <defs></defs>
    <g id="Welcome" stroke="none" stroke-width="1" fill="none" fill-rule="evenodd">
        <g id="restful-design" transform="translate(-792.000000, -570.000000)">
            <rect id="Rectangle-148" x="720" y="1" width="678" height="855"></rect>
            <rect id="Rectangle-149" x="709" y="439" width="752" height="417"></rect>
            <g id="e619" transform="translate(792.000000, 570.000000)" fill="#838383">
                <path d="M49.1594465,15.3178268 C49.3547585,16.3920458 49.2082745,17.4613818 48.7199925,18.5258348 C48.2317115,19.5902878 47.4699925,20.4447798 46.4348365,21.0893108 C46.1809305,21.2455608 46.0149145,21.4164598 45.9367895,21.6020068 C45.8586645,21.7875528 45.8293685,22.0268108 45.8488995,22.3197798 C45.9270245,23.6869678 45.8733135,24.9760298 45.6877665,26.1869678 C45.5022195,27.3979048 45.1506575,28.5307178 44.6330785,29.5854048 C44.1155005,30.6400928 43.4221415,31.6020068 42.5530005,32.4711468 C41.6838605,33.3402878 40.6242895,34.1068888 39.3742895,34.7709518 C39.3742895,34.7709518 39.1447975,34.8881388 38.6858135,35.1225138 C38.2268285,35.3568888 37.5237035,35.6156788 36.5764385,35.8988818 C35.6291725,36.1820848 34.4231185,36.4408738 32.9582745,36.6752488 C31.4934305,36.9096238 29.7551495,37.0268108 27.7434305,37.0268108 C26.0051495,37.0268108 24.4377665,36.8705608 23.0412825,36.5580608 C21.6447975,36.2455608 20.4582745,35.9037638 19.4817115,35.5326708 C18.5051495,35.1615768 17.7580785,34.8197798 17.2405005,34.5072798 L16.4641335,34.0385298 C15.5852275,33.5502488 14.8381575,32.9740768 14.2229225,32.3100138 C13.6076885,31.6459518 13.0998755,30.9184128 12.6994855,30.1273968 C12.2990945,29.3363818 11.9914775,28.4916548 11.7766335,27.5932178 C11.5617895,26.6947798 11.4250715,25.7572798 11.3664775,24.7807178 C11.3274145,24.3705608 11.3078835,23.9555218 11.3078835,23.5355998 C11.3078835,23.1156788 11.3371805,22.7006388 11.3957745,22.2904828 C11.4348365,21.9975138 11.4104225,21.7680218 11.3225325,21.6020068 C11.2346415,21.4359908 11.0637425,21.2748578 10.8098365,21.1186078 C10.0676495,20.6303268 9.46706351,20.0492718 9.00807851,19.3754438 C8.54909451,18.7016158 8.24636051,17.9838428 8.09987551,17.2221238 C7.95339151,16.4604048 7.96803951,15.6889208 8.14382151,14.9076708 C8.31960251,14.1264208 8.67116451,13.4037638 9.19850851,12.7397018 C9.74538351,12.0170458 10.4045635,11.4506388 11.1760475,11.0404828 C11.9475325,10.6303268 12.7580785,10.3813028 13.6076885,10.2934128 C14.4572975,10.2055218 15.3069075,10.2738818 16.1565165,10.4984908 C17.0061255,10.7230998 17.7824925,11.1186078 18.4856185,11.6850138 C18.7395245,11.8803268 18.9641335,11.9926318 19.1594465,12.0219288 C19.3547585,12.0512248 19.5891335,12.0072798 19.8625715,11.8900928 C21.3078835,11.2650928 22.7629615,10.7963428 24.2278055,10.4838428 C25.6926495,10.1713428 27.1526105,10.0102098 28.6076885,10.0004438 C30.0627665,9.99067884 31.5178445,10.1420458 32.9729225,10.4545458 C34.4280005,10.7670458 35.8781965,11.2357958 37.3235085,11.8607958 C37.6360085,11.9975138 37.8947975,12.0463428 38.0998755,12.0072798 C38.3049535,11.9682178 38.5344465,11.8510298 38.7883525,11.6557178 C39.7258525,10.9135298 40.7561255,10.4643108 41.8791725,10.3080608 C43.0022195,10.1518108 44.0666725,10.2543498 45.0725325,10.6156788 C46.0783915,10.9770068 46.9524145,11.5580608 47.6946025,12.3588428 C48.4367895,13.1596238 48.9250715,14.1459518 49.1594465,15.3178268 L49.1594465,15.3178268 Z M37.7922585,34.6244678 C39.8625715,33.8627488 41.5129615,32.6664598 42.7434305,31.0355998 C43.9738995,29.4047408 44.7405005,27.6273968 45.0432355,25.7035688 C45.3459695,23.7797408 45.1555395,21.8461468 44.4719465,19.9027878 C43.7883525,17.9594288 42.5676495,16.2943888 40.8098365,14.9076708 C39.9699925,14.2240768 39.0959695,13.6332568 38.1877665,13.1352098 C37.2795635,12.6371628 36.3469465,12.2221238 35.3899145,11.8900928 C34.4328835,11.5580608 33.4465555,11.3041548 32.4309305,11.1283738 C31.4153055,10.9525928 30.3703835,10.8451708 29.2961645,10.8061078 C28.1047585,10.7865768 26.9328835,10.8451708 25.7805395,10.9818888 C24.6281965,11.1186078 23.5100325,11.3529828 22.4260475,11.6850138 C21.3420635,12.0170458 20.2922585,12.4564988 19.2766335,13.0033738 C18.2610085,13.5502488 17.2844465,14.2045458 16.3469465,14.9662638 C15.4485085,15.7279828 14.6916725,16.5385298 14.0764385,17.3979048 C13.4612035,18.2572798 12.9875715,19.1654828 12.6555395,20.1225138 C12.3235085,21.0795458 12.1281965,22.0854048 12.0696025,23.1400928 C12.0110085,24.1947798 12.0891335,25.2982958 12.3039775,26.4506388 C12.5188215,27.5834518 12.8508525,28.6039598 13.3000715,29.5121628 C13.7492895,30.4203658 14.3108135,31.2260298 14.9846415,31.9291548 C15.6584695,32.6322798 16.4348365,33.2377488 17.3137425,33.7455608 C18.1926495,34.2533738 19.1692115,34.6732958 20.2434305,35.0053268 C21.5910865,35.4350138 22.9387425,35.7230998 24.2863995,35.8695848 C25.6340555,36.0160688 26.8938215,36.0990768 28.0656965,36.1186078 C29.0813215,36.1186078 30.0432355,36.0844288 30.9514385,36.0160688 C31.8596415,35.9477098 32.7190165,35.8500528 33.5295635,35.7230998 C34.3401105,35.5961468 35.0969465,35.4398968 35.8000715,35.2543498 C36.5031965,35.0688028 37.1672585,34.8588428 37.7922585,34.6244678 L37.7922585,34.6244678 Z M36.4446025,22.7885298 C37.7531965,22.7885298 38.8957745,23.3109908 39.8723365,24.3559128 C40.8488995,25.4008348 41.3371805,26.5287638 41.3371805,27.7397018 C41.3371805,28.9506388 40.8537825,29.9223188 39.8869855,30.6547408 C38.9201885,31.3871628 37.7922585,31.7533738 36.5031965,31.7533738 C35.1946025,31.7533738 33.9348365,31.3236858 32.7238995,30.4643108 C31.5129615,29.6049358 30.9074925,28.5697798 30.9074925,27.3588428 C30.9074925,26.1479048 31.5080785,25.0834518 32.7092505,24.1654828 C33.9104225,23.2475138 35.1555395,22.7885298 36.4446025,22.7885298 L36.4446025,22.7885298 Z M35.8293685,26.9779828 C36.4153055,26.9779828 36.9182355,26.8168498 37.3381575,26.4945848 C37.7580785,26.1723188 37.9680395,25.7963428 37.9680395,25.3666548 C37.9680395,24.9174358 37.7580785,24.5365768 37.3381575,24.2240768 C36.9182355,23.9115768 36.4153055,23.7553268 35.8293685,23.7553268 C35.2434305,23.7553268 34.7405005,23.9115768 34.3205785,24.2240768 C33.9006575,24.5365768 33.6906965,24.9174358 33.6906965,25.3666548 C33.6906965,25.7963428 33.9006575,26.1723188 34.3205785,26.4945848 C34.7405005,26.8168498 35.2434305,26.9779828 35.8293685,26.9779828 L35.8293685,26.9779828 Z M19.7453835,22.7885298 C21.0539775,22.7885298 22.3039775,23.2475138 23.4953835,24.1654828 C24.6867895,25.0834518 25.2824925,26.1479048 25.2824925,27.3588428 C25.2824925,28.5697798 24.6770245,29.6049358 23.4660865,30.4643108 C22.2551495,31.3236858 21.0051495,31.7533738 19.7160865,31.7533738 C18.4074925,31.7533738 17.2697975,31.3871628 16.3030005,30.6547408 C15.3362035,29.9223188 14.8528055,28.9506388 14.8528055,27.7397018 C14.8528055,26.5287638 15.3459695,25.4008348 16.3322975,24.3559128 C17.3186255,23.3109908 18.4563215,22.7885298 19.7453835,22.7885298 L19.7453835,22.7885298 Z M20.3606185,26.9779828 C20.9465555,26.9779828 21.4494855,26.8168498 21.8694075,26.4945848 C22.2893285,26.1723188 22.4992895,25.7963428 22.4992895,25.3666548 C22.4992895,24.9174358 22.2893285,24.5365768 21.8694075,24.2240768 C21.4494855,23.9115768 20.9465555,23.7553268 20.3606185,23.7553268 C19.7746805,23.7553268 19.2717505,23.9115768 18.8518285,24.2240768 C18.4319075,24.5365768 18.2219465,24.9174358 18.2219465,25.3666548 C18.2219465,25.7963428 18.4319075,26.1723188 18.8518285,26.4945848 C19.2717505,26.8168498 19.7746805,26.9779828 20.3606185,26.9779828 L20.3606185,26.9779828 Z M28.2121805,30.0248578 C28.4465555,30.0248578 28.6809305,30.0736858 28.9153055,30.1713428 C29.1496805,30.2689988 29.3645245,30.3666548 29.5598365,30.4643108 C29.8137425,30.5619678 29.9602275,30.7084518 29.9992895,30.9037638 C30.0383525,31.0990768 29.9699925,31.3041548 29.7942115,31.5189988 C29.4426495,32.0072798 28.9153055,32.2514208 28.2121805,32.2514208 C27.5090555,32.2514208 26.9817115,32.0170458 26.6301495,31.5482958 C26.4543685,31.3334518 26.3811255,31.1283738 26.4104225,30.9330608 C26.4397195,30.7377488 26.5813215,30.5814988 26.8352275,30.4643108 C27.0305395,30.3666548 27.2453835,30.2689988 27.4797585,30.1713428 C27.7141335,30.0736858 27.9582745,30.0248578 28.2121805,30.0248578 L28.2121805,30.0248578 Z" id="Shape"></path>
            </g>
        </g>
    </g>
</svg>