<?xml version="1.0" encoding="utf-8"?>
<!-- Generated by IcoMoon.io -->
<!DOCTYPE svg PUBLIC "-//W3C//DTD SVG 1.1//EN" "http://www.w3.org/Graphics/SVG/1.1/DTD/svg11.dtd">
<svg version="1.1" xmlns="http://www.w3.org/2000/svg" xmlns:xlink="http://www.w3.org/1999/xlink" width="1006" height="1024" viewBox="0 0 1006 1024"><g id="icomoon-ignore">
</g>
<path d="M813.586 790.839l-242.377-242.377 241.518-241.518c20.48-20.48 18.926-55.552-1.554-76.032s-55.552-22.034-76.032-1.554l-241.518 241.518-239.141-239.141c-20.48-20.48-55.552-18.926-76.032 1.554s-22.034 55.552-1.554 76.032l239.141 239.141-240 240c-20.48 20.48-18.926 55.552 1.554 76.032s55.552 22.034 76.032 1.554l240-240 242.377 242.377c20.48 20.48 55.552 18.926 76.032-1.554s22.034-55.552 1.554-76.032z"></path>
</svg>
