<svg xmlns="http://www.w3.org/2000/svg" width="394" height="356" viewBox="0 0 394 356">
  <g fill="none" fill-rule="evenodd">
    <polygon fill="#FDB300" points="85.79 11.715 196.603 0 307.415 11.715 393.206 126.881 196.603 355.823 0 126.881"/>
    <g transform="translate(0 126.881)">
      <polygon fill="#EA6C00" points="79.634 0 196.603 228.942 0 0"/>
      <polygon fill="#EA6C00" points="276.236 0 393.205 228.942 196.602 0" transform="matrix(-1 0 0 1 589.808 0)"/>
      <polygon fill="#FDAD00" points="79.634 0 313.572 0 196.603 228.942"/>
    </g>
    <polygon fill="#FDD231" points="196.603 0 85.79 11.715 79.634 126.881"/>
    <polygon fill="#FDD231" points="313.571 0 202.758 11.715 196.602 126.881" transform="matrix(-1 0 0 1 510.174 0)"/>
    <polygon fill="#FDAD00" points="307.415 126.881 393.206 11.715 387.049 126.881" transform="matrix(-1 0 0 1 700.62 0)"/>
    <polygon fill="#FDAD00" points="0 126.881 85.79 11.715 79.634 126.881"/>
    <polygon fill="#FEEEB7" points="196.603 0 79.634 126.881 313.572 126.881"/>
  </g>
</svg>
