<?xml version="1.0" standalone="no"?>
<!DOCTYPE svg PUBLIC "-//W3C//DTD SVG 20010904//EN"
 "http://www.w3.org/TR/2001/REC-SVG-20010904/DTD/svg10.dtd">
<svg version="1.0" xmlns="http://www.w3.org/2000/svg"
 width="417.000000pt" height="417.000000pt" viewBox="0 0 417.000000 417.000000"
 preserveAspectRatio="xMidYMid meet">
<metadata>
Created by potrace 1.11, written by Peter Selinger 2001-2013
</metadata>
<g transform="translate(0.000000,417.000000) scale(0.100000,-0.100000)"
fill="#000000" stroke="none">
<path d="M1918 4165 c-2 -1 -30 -5 -63 -9 -560 -59 -1097 -365 -1436 -819
-223 -298 -350 -615 -405 -1007 -10 -68 -11 -366 -3 -455 33 -330 147 -651
335 -939 37 -55 69 -103 73 -106 3 -3 24 -27 45 -55 22 -27 47 -57 55 -66 9
-9 37 -38 62 -65 195 -207 421 -361 724 -494 80 -35 302 -99 395 -114 19 -3
46 -8 59 -10 101 -21 437 -28 571 -12 213 25 467 100 665 196 111 55 298 169
356 218 13 11 44 37 69 57 318 260 572 656 675 1052 57 216 69 313 69 553 0
199 -4 240 -34 396 -155 796 -762 1431 -1553 1623 -175 43 -258 53 -469 56
-102 2 -188 2 -190 0z m347 -506 c120 -15 137 -18 247 -49 480 -136 861 -480
1048 -945 37 -93 73 -219 85 -305 4 -25 11 -70 15 -100 9 -58 5 -341 -5 -400
-20 -118 -64 -286 -90 -345 -50 -114 -88 -189 -125 -250 -214 -351 -547 -602
-940 -709 -96 -25 -110 -28 -230 -45 -173 -24 -439 -2 -632 53 -93 27 -113 35
-228 88 -428 200 -752 596 -864 1058 -35 144 -37 163 -41 345 -4 176 9 289 51
440 30 110 29 105 39 130 4 11 19 47 32 80 82 206 271 459 455 608 83 66 216
152 311 198 145 71 358 133 497 146 30 3 57 7 59 8 7 7 249 2 316 -6z"/>
</g>
</svg>
